<svg width="512" height="512" viewBox="0 0 512 512" xmlns="http://www.w3.org/2000/svg"><rect width="512" height="512" fill="#EE9075"/><path d="M543.3 398.7 L434.3 548.7 L258.0 606.0 L81.7 548.7 L-27.3 398.7 L-27.3 213.3 L81.7 63.3 L258.0 6.0 L434.3 63.3 L543.3 213.3 Z" fill="#F4AE90"/><path d="M438.0 306.0 L403.6 411.8 L313.6 477.2 L202.4 477.2 L112.4 411.8 L78.0 306.0 L112.4 200.2 L202.4 134.8 L313.6 134.8 L403.6 200.2 Z" fill="#F9CDB0"/><path d="M319.0 331.3 L283.3 367.0 L232.7 367.0 L197.0 331.3 L197.0 280.7 L232.7 245.0 L283.3 245.0 L319.0 280.7 Z" fill="#FCE6CF"/><clipPath id="k1"><path d="M313.2 600 L313.2 440 L420 262 L532 413.20000000000005 L532 600 Z"/></clipPath><g clip-path="url(#k1)"><rect x="-100" y="-100" width="800" height="800" fill="#C4513F"/><path d="M420.0 -100.0 421.5 262.0 427.3 272.0 425.7 314.5 450.0 337.0 412.8 372.0 459.2 389.5 422.0 424.5 466.1 444.5 437.0 487.0 449.2 640.0 449.2 600.0 449.2 700.0 -200.0 700.0 -200.0 -100.0 Z" fill="#DA644B"/></g><clipPath id="k2"><path d="M-20 600 L-20 365.79999999999995 L104 186 L251.32 440 L251.32 600 Z"/></clipPath><g clip-path="url(#k2)"><rect x="-100" y="-100" width="800" height="800" fill="#C4513F"/><path d="M104.0 -100.0 105.5 186.0 113.1 199.0 111.0 254.5 142.7 283.8 94.2 329.4 154.7 352.3 106.2 397.9 163.7 424.0 125.7 479.4 138.6 640.0 138.6 600.0 138.6 700.0 -200.0 700.0 -200.0 -100.0 Z" fill="#E9785B"/></g><clipPath id="k3"><path d="M-20 600 L-20 514.84 L262 340 L532 507.4 L532 600 Z"/></clipPath><g clip-path="url(#k3)"><rect x="-100" y="-100" width="800" height="800" fill="#7E2A2F"/><path d="M262.0 -100.0 263.5 340.0 269.6 346.9 266.4 376.1 292.4 391.6 250.3 415.7 300.8 427.7 258.7 451.8 306.6 465.6 273.1 494.8 284.7 640.0 284.7 600.0 284.7 700.0 -200.0 700.0 -200.0 -100.0 Z" fill="#A63B36"/></g></svg>